HIERARCHY
ROOT SimulationBone
{
	OFFSET 0.000000 0.000000 0.000000
	CHANNELS 6 Xposition Yposition Zposition Zrotation Yrotation Xrotation 
	JOINT Hips
	{
		OFFSET 0.000000 0.000000 0.000000
		CHANNELS 6 Xposition Yposition Zposition Zrotation Yrotation Xrotation 
		JOINT LeftUpLeg
		{
			OFFSET 0.103456 1.857829 10.548507
			CHANNELS 3 Zrotation Yrotation Xrotation
			JOINT LeftLeg
			{
				OFFSET 43.500000 -0.000031 0.000008
				CHANNELS 3 Zrotation Yrotation Xrotation
				JOINT LeftFoot
				{
					OFFSET 42.372200 0.000015 -0.000002
					CHANNELS 3 Zrotation Yrotation Xrotation
					JOINT LeftToe
					{
						OFFSET 17.299992 -0.000004 0.000000
						CHANNELS 3 Zrotation Yrotation Xrotation
						End Site
						{
							OFFSET 0.000000 0.000000 0.000000
						}
					}
				}
			}
		}
		JOINT RightUpLeg
		{
			OFFSET 0.103460 1.857824 -10.548508
			CHANNELS 3 Zrotation Yrotation Xrotation
			JOINT RightLeg
			{
				OFFSET 43.500042 -0.000019 0.000004
				CHANNELS 3 Zrotation Yrotation Xrotation
				JOINT RightFoot
				{
					OFFSET 42.372265 -0.000019 0.000016
					CHANNELS 3 Zrotation Yrotation Xrotation
					JOINT RightToe
					{
						OFFSET 17.299999 -0.000001 -0.000006
						CHANNELS 3 Zrotation Yrotation Xrotation
						End Site
						{
							OFFSET 0.000000 0.000000 0.000000
						}
					}
				}
			}
		}
		JOINT Spine
		{
			OFFSET 6.901965 -2.603734 0.000001
			CHANNELS 3 Zrotation Yrotation Xrotation
			JOINT Spine1
			{
				OFFSET 12.588102 0.000006 -0.000006
				CHANNELS 3 Zrotation Yrotation Xrotation
				JOINT Spine2
				{
					OFFSET 12.343201 -0.000002 0.000010
					CHANNELS 3 Zrotation Yrotation Xrotation
					JOINT Neck
					{
						OFFSET 25.832899 -0.000004 -0.000009
						CHANNELS 3 Zrotation Yrotation Xrotation
						JOINT Head
						{
							OFFSET 11.766603 0.000001 0.000007
							CHANNELS 3 Zrotation Yrotation Xrotation
							End Site
							{
								OFFSET 0.000000 0.000000 0.000000
							}
						}
					}
					JOINT LeftShoulder
					{
						OFFSET 19.745899 -1.480371 6.000098
						CHANNELS 3 Zrotation Yrotation Xrotation
						JOINT LeftArm
						{
							OFFSET 11.284129 -0.000011 -0.000015
							CHANNELS 3 Zrotation Yrotation Xrotation
							JOINT LeftForeArm
							{
								OFFSET 33.000046 0.000011 0.000030
								CHANNELS 3 Zrotation Yrotation Xrotation
								JOINT LeftHand
								{
									OFFSET 25.200010 0.000012 -0.000000
									CHANNELS 3 Zrotation Yrotation Xrotation
									End Site
									{
										OFFSET 0.000000 0.000000 0.000000
									}
								}
							}
						}
					}
					JOINT RightShoulder
					{
						OFFSET 19.746092 -1.480375 -6.000075
						CHANNELS 3 Zrotation Yrotation Xrotation
						JOINT RightArm
						{
							OFFSET 11.284135 -0.000010 -0.000014
							CHANNELS 3 Zrotation Yrotation Xrotation
							JOINT RightForeArm
							{
								OFFSET 33.000092 0.000016 0.000013
								CHANNELS 3 Zrotation Yrotation Xrotation
								JOINT RightHand
								{
									OFFSET 25.199780 0.000135 0.000426
									CHANNELS 3 Zrotation Yrotation Xrotation
									End Site
									{
										OFFSET 0.000000 0.000000 0.000000
									}
								}
							}
						}
					}
				}
			}
		}
	}
}
MOTION
Frames: 13
Frame Time: 0.016667
-107.154862 0.000000 -427.401342 0.000000 258.128195 0.000000 -10.766602 77.838452 -1.802628 76.318074 -2.704401 -177.956143 132.514484 -4.561645 166.621562 -98.066847 2.681589 -12.176432 77.391731 7.290983 -4.871746 21.454553 0.003091 -0.000006 -160.927647 -3.019053 -178.959955 -12.960978 7.008642 5.873223 88.958574 -4.890774 -4.498455 21.454561 -0.003106 -0.000020 8.834949 0.166899 3.737257 7.660023 0.086392 7.477251 7.344869 0.131559 7.476601 -2.989069 -15.994488 -10.603611 -8.707493 19.027834 -19.337257 -152.318109 -68.280550 -29.987359 -2.738317 53.506982 24.740024 -51.833405 -17.109233 1.949029 3.467741 -1.010610 38.448055 163.305430 80.659655 -15.390756 -28.110635 -36.731102 -5.715987 -26.481421 14.075825 -1.132522 12.765304 -26.011159 -12.417260 
-108.236234 0.000000 -425.149941 0.000000 257.518027 0.000000 -11.515249 77.334373 -1.947039 75.825313 -3.560299 -178.489449 126.017317 -4.190904 163.479389 -99.084105 2.304996 -10.468332 78.885358 6.078756 -5.115495 21.454557 0.003096 -0.000005 -160.022330 -1.922900 -179.077588 -12.392312 6.933921 5.544789 88.404661 -4.734732 -4.707356 21.454562 -0.003105 -0.000020 9.515335 -0.028481 3.961173 9.005396 -0.365123 7.908003 8.690586 -0.317377 7.910048 -4.319245 -17.093414 -10.597891 -10.272184 19.495964 -20.186498 -153.318293 -68.739219 -28.942098 -3.185064 52.084740 25.101200 -53.013134 -17.130874 1.992787 2.638682 -1.572303 37.862753 155.268420 81.497454 -23.483369 -29.718111 -33.172493 -2.965347 -26.726691 14.061928 -1.136136 13.036427 -21.517787 -13.840695 
-109.377884 0.000000 -422.786136 0.000000 256.931997 0.000000 -12.307944 76.891280 -2.068137 75.286297 -4.438644 -178.986325 119.777045 -3.859972 160.798483 -97.900573 1.676903 -8.624647 79.405339 4.830883 -4.988746 21.454559 0.003098 -0.000002 -159.061874 -0.854070 -179.142468 -11.569684 6.818114 5.265887 87.359643 -4.647272 -4.958349 21.454564 -0.003104 -0.000020 10.221839 -0.234993 4.127503 10.401045 -0.840353 8.217154 10.086473 -0.790757 8.222043 -5.118430 -18.178595 -10.551555 -12.092439 19.830591 -20.974253 -153.848201 -69.357658 -28.379400 -3.706467 51.164769 25.008522 -53.633637 -17.061347 2.010592 1.888671 -2.040447 37.218567 146.718912 82.160043 -32.077910 -31.230944 -29.643287 -0.502343 -27.044437 14.088778 -1.143877 12.940962 -15.697285 -15.375116 
-110.578863 0.000000 -420.313751 0.000000 256.366737 0.000000 -13.148330 76.509842 -2.204946 74.593376 -5.413030 -179.507250 114.078652 -3.602289 158.991805 -94.416231 0.445449 -6.629921 79.595882 3.542536 -4.722304 21.454560 0.003096 0.000001 -158.248694 0.338894 -179.139155 -10.694802 6.688088 4.970937 85.883556 -4.564615 -5.135282 21.454563 -0.003105 -0.000019 10.911031 -0.482686 4.255125 11.758672 -1.395849 8.439385 11.444236 -1.344920 8.447594 -5.299480 -19.091236 -10.557211 -14.097924 20.031661 -21.710088 -154.036843 -70.114191 -28.166098 -4.309221 50.592535 24.641225 -53.667326 -16.902215 1.999865 1.332766 -2.453545 36.513091 137.364729 82.438660 -41.486628 -32.325027 -26.084435 1.398116 -27.399603 14.232679 -1.158663 12.531166 -9.263103 -16.756962 
-111.836102 0.000000 -417.743119 0.000000 255.819877 0.000000 -14.013758 76.178664 -2.394523 73.660321 -6.561981 179.882994 109.235484 -3.360149 158.295878 -88.672798 -1.618531 -4.590247 80.006099 2.183164 -4.790114 21.454557 0.003092 0.000003 -157.755489 1.805446 -179.029205 -9.976204 6.551127 4.573973 84.054477 -4.398239 -5.119553 21.454554 -0.003107 -0.000018 11.542162 -0.805062 4.363453 12.994765 -2.095796 8.609713 12.680360 -2.043837 8.622094 -4.836894 -19.717070 -10.679496 -16.206868 20.166965 -22.414547 -154.090601 -70.962153 -28.089972 -5.011971 50.143815 24.236411 -53.120367 -16.693966 1.966142 1.151695 -2.838275 35.717874 128.154033 82.138873 -50.777908 -32.763112 -22.488972 2.638165 -27.733224 14.565622 -1.184143 11.955947 -2.943709 -17.702314 
-113.144012 0.000000 -415.089428 0.000000 255.291657 0.000000 -14.797580 75.841293 -2.614397 72.644243 -7.821562 179.173130 105.577655 -3.047806 157.919069 -81.159442 -3.653817 -2.858054 80.166653 0.796924 -5.577790 21.454553 0.003089 0.000002 -157.363993 3.455499 -178.708949 -9.373660 6.356139 3.978340 81.837188 -4.079136 -4.956285 21.454548 -0.003109 -0.000017 12.142059 -1.199610 4.471161 14.163220 -2.938300 8.763875 13.848741 -2.885400 8.781279 -4.018272 -20.127077 -10.863712 -18.469065 20.408699 -23.163246 -154.198035 -71.872799 -27.957405 -5.814158 49.777410 23.641570 -52.196735 -16.510739 1.923503 1.610423 -2.913182 35.157216 121.091297 81.577681 -57.922094 -32.964732 -19.094586 3.501782 -27.930321 15.205412 -1.230260 11.204337 3.179379 -17.764552 
-114.493787 0.000000 -412.367496 0.000000 254.783989 0.000000 -15.399645 75.436288 -2.829803 71.742555 -9.092019 178.360088 103.387842 -2.660727 157.180285 -72.322339 -4.721870 -1.574258 79.631490 -0.587131 -7.396663 21.454550 0.003091 -0.000001 -156.801042 5.148623 -178.084055 -8.824089 6.072110 3.125977 79.202565 -3.566570 -4.702398 21.454551 -0.003112 -0.000018 12.746825 -1.650773 4.591774 15.337251 -3.896449 8.928128 15.022590 -3.842545 8.951260 -3.158260 -20.437512 -11.046267 -20.880916 20.897973 -24.036426 -154.568248 -72.813156 -27.554808 -6.693069 49.465185 22.693194 -51.092851 -16.406989 1.880766 2.835622 -2.457876 35.117256 116.114181 81.155130 -62.955071 -33.326819 -16.192353 4.421869 -27.985986 16.212367 -1.299786 10.334113 9.144078 -16.587359 
-115.873392 0.000000 -409.591867 0.000000 254.296877 0.000000 -15.830329 74.927307 -3.010011 71.066810 -10.270875 177.456819 102.743318 -2.043199 156.848205 -62.280567 -4.970320 -0.721695 79.030062 -2.010354 -10.461249 21.454551 0.003094 -0.000003 -155.988243 6.790301 -177.203999 -8.428892 5.796206 2.129899 76.258665 -2.898536 -4.277558 21.454558 -0.003115 -0.000018 13.362581 -2.125310 4.719566 16.531771 -4.903846 9.093672 16.216811 -4.848929 9.122835 -2.353105 -20.752154 -11.271971 -23.055959 21.577399 -25.018126 -155.432496 -73.714375 -26.647887 -7.563443 49.064871 21.571041 -49.781963 -16.323140 1.831410 4.339912 -1.792774 35.344654 111.093163 80.858334 -68.016881 -33.674307 -14.108290 6.313003 -28.393719 17.369965 -1.376715 9.589510 14.800088 -14.324233 
-117.269057 0.000000 -406.779026 0.000000 253.829527 0.000000 -16.126056 74.300456 -3.124659 70.639955 -11.224920 176.474525 103.457104 -1.151457 157.869581 -51.673611 -4.929233 -0.470826 78.479193 -3.196922 -14.092313 21.454553 0.003095 -0.000001 -155.005755 8.257787 -176.147743 -8.384597 5.595698 1.115897 73.193489 -2.097482 -3.565718 21.454559 -0.003118 -0.000016 13.965253 -2.584213 4.852359 17.701601 -5.880832 9.262265 17.386259 -5.824884 9.297281 -1.582873 -21.098075 -11.583128 -24.657975 22.343420 -26.024632 -156.966615 -74.501771 -25.059900 -8.310132 48.458385 20.545887 -48.199928 -16.201312 1.771654 5.639801 -1.249635 35.518011 105.001847 80.540022 -74.146756 -33.832621 -13.057332 9.843506 -29.606820 18.397346 -1.459213 9.171635 19.913505 -11.112449 
-118.669768 0.000000 -403.945066 0.000000 253.385155 0.000000 -16.328689 73.606537 -3.151792 70.219697 -11.712789 175.406144 104.417452 -0.645303 160.415626 -43.756598 -5.605800 -1.691569 74.833744 -2.785502 -14.078562 21.454555 0.003092 0.000001 -154.357889 9.278912 -174.973204 -9.086062 5.308032 0.083322 70.378193 -1.082911 -2.464275 21.454558 -0.003118 -0.000014 14.438878 -2.983787 5.020148 18.615348 -6.736607 9.508493 18.299689 -6.679174 9.548633 -0.591351 -21.213697 -11.890632 -25.965547 23.047995 -26.864892 -158.994303 -75.130800 -22.973310 -8.794392 47.718569 19.875834 -46.351544 -16.106295 1.709745 6.894785 -0.717553 35.675289 100.444482 80.321399 -78.725375 -34.262431 -12.738281 14.114429 -31.399301 19.037204 -1.542446 9.150004 24.175209 -6.660044 
-120.068497 0.000000 -401.102548 0.000000 252.970601 0.000000 -16.466863 72.885488 -3.086757 69.669595 -11.570857 174.301131 104.518814 -1.090002 163.829162 -41.526842 -7.458940 -4.737379 66.396506 0.787504 -7.520942 21.454552 0.003086 0.000000 -154.432850 9.662348 -173.735508 -10.930844 4.765481 -0.958855 68.156875 0.171035 -0.983511 21.454558 -0.003112 -0.000015 14.709182 -3.284161 5.224851 19.125005 -7.386794 9.852078 18.809218 -7.327308 9.896099 0.836805 -20.879266 -12.062876 -27.289225 23.559592 -27.345611 -161.180750 -75.558872 -20.730763 -8.904393 46.958006 19.704758 -44.298062 -16.095557 1.649731 8.300809 -0.077078 35.926990 99.320635 80.377248 -79.843904 -35.409333 -12.737422 18.017688 -33.420443 19.166492 -1.599935 9.506917 27.221743 -0.883712 
-121.459512 0.000000 -398.262277 0.000000 252.594580 0.000000 -16.498177 72.069107 -2.979421 69.564372 -11.026755 173.453197 103.873857 -2.189289 165.074894 -44.584144 -8.500563 -6.536940 60.164840 5.547158 1.063316 21.454550 0.003080 -0.000002 -154.669675 9.607295 -172.411091 -14.159389 4.054153 -1.863358 66.543267 1.377762 0.420950 21.454560 -0.003106 -0.000018 14.962308 -3.466155 5.316430 19.614671 -7.783242 9.987688 19.298710 -7.722948 10.034092 2.545887 -20.332602 -11.971410 -28.477747 23.881163 -27.366361 -163.146157 -75.700861 -18.719599 -8.583687 46.249307 19.802708 -42.266494 -16.073230 1.589045 9.542632 0.414879 36.251587 99.456543 80.266040 -79.718013 -37.029419 -12.942450 21.201300 -35.540646 19.168438 -1.643855 9.959072 28.591760 5.001307 
-122.835497 0.000000 -395.436652 0.000000 252.266727 0.000000 -16.403716 71.114863 -2.898521 70.393870 -10.463794 173.190413 103.053225 -3.434474 161.980701 -51.430934 -6.707171 -4.782137 61.556704 7.093778 7.686760 21.454553 0.003079 -0.000002 -154.588827 9.439579 -170.954591 -18.941639 3.282264 -2.431358 65.347699 2.191914 1.336744 21.454560 -0.003105 -0.000020 15.386281 -3.542758 5.145355 20.472783 -7.939588 9.602037 20.156290 -7.881588 9.649454 4.292235 -19.815677 -11.574025 -29.328893 24.025649 -26.905710 -164.774390 -75.538622 -17.056004 -7.911341 45.601804 19.890085 -40.395055 -15.929675 1.527882 10.286781 0.490803 36.462165 98.768595 79.566684 -80.467891 -38.773360 -13.349323 23.617759 -37.737556 19.445522 -1.715115 10.041678 28.009981 9.475924 
